<?xml version="1.0" encoding="UTF-8"?>
<svg id="a" data-name="Layer 1 copy" xmlns="http://www.w3.org/2000/svg" viewBox="0 0 2757.91 2113.47">
  <defs>
    <style>
      .b {
        fill: #2179aa;
      }
    </style>
  </defs>
  <path class="b" d="M1862.32,589.75h-725.88c-128.14,0-232.38,104.25-232.38,232.38v725.88c0,128.13,104.24,232.38,232.38,232.38h725.88c128.13,0,232.38-104.25,232.38-232.38V822.14c0-128.13-104.25-232.38-232.38-232.38Zm20.22,620.45c-6.4,206.14-178.31,378.78-390.6,374.29-205.31-4.34-384.9-178.98-375.55-384.36,.94-214.7,173.65-385.87,387.86-383.95,192.86,1.73,385.37,166.02,378.29,394.02Zm7.02-326.41c-49.85-1.01-89.48-42.1-89.61-92.92-.14-55.6,40.84-96.54,95.94-95.82,52.48,.68,93.41,42.01,93.35,94.27-.06,49.63-48.47,95.51-99.68,94.47Z"/>
  <path class="b" d="M1862.32,432.85h-725.88c-214.66,0-389.29,174.64-389.29,389.29v725.88c0,214.65,174.63,389.29,389.29,389.29h725.88c214.65,0,389.29-174.64,389.29-389.29V822.14c0-214.65-174.64-389.29-389.29-389.29Zm232.38,1115.17c0,128.13-104.25,232.38-232.38,232.38h-725.88c-128.14,0-232.38-104.25-232.38-232.38V822.14c0-128.13,104.24-232.38,232.38-232.38h725.88c128.13,0,232.38,104.25,232.38,232.38v725.88Z"/>
</svg>